<svg width="84" height="30" viewBox="0 0 84 30" fill="none" xmlns="http://www.w3.org/2000/svg">
<path d="M10.0961 24.12C7.57609 24.12 5.63609 23.84 4.27609 23.28C2.89609 22.72 2.21609 21.78 2.21609 20.46C2.21609 19.14 2.89609 18.2 4.27609 17.64C5.63609 17.1 7.57609 16.82 10.0961 16.82C11.3361 16.82 12.4561 16.9 13.4561 17.02C14.4161 17.16 15.2561 17.36 15.9361 17.64C16.5961 17.94 17.0961 18.32 17.4561 18.78C17.7961 19.26 17.9761 19.82 17.9761 20.46C17.9761 21.78 17.2961 22.72 15.9361 23.28C14.5561 23.84 12.6161 24.12 10.0961 24.12ZM13.4161 10.04H2.61609V6.6H17.5561V12.48H13.4161V10.04ZM1.43609 13.12H6.81609V11.2H10.9561V13.12H18.7361V16.16H1.43609V13.12ZM10.0961 21.16C11.2561 21.16 12.1761 21.1 12.8561 21.02C13.4961 20.94 13.8361 20.74 13.8361 20.46C13.8361 20.18 13.4961 20 12.8561 19.9C12.1761 19.82 11.2561 19.76 10.0961 19.76C8.91609 19.76 7.99609 19.82 7.35609 19.9C6.67609 20 6.35609 20.18 6.35609 20.46C6.35609 20.74 6.67609 20.94 7.35609 21.02C7.99609 21.1 8.91609 21.16 10.0961 21.16ZM28.2553 13.98C28.2553 14.88 28.1553 15.72 27.9953 16.48L32.7153 20.02L30.6553 23.08L26.4953 19.9C25.9353 20.66 25.2353 21.28 24.4153 21.84C23.5753 22.36 22.5753 22.78 21.4553 23.08L19.6753 20.06C21.1953 19.64 22.3153 18.94 23.0353 17.96C23.7553 17 24.1153 15.68 24.1153 13.96V6.56H28.2553V13.98ZM37.5353 23.32H33.3953V6.4H37.5353V23.32ZM48.4945 24.12C45.9745 24.12 44.0345 23.84 42.6745 23.28C41.2945 22.72 40.6145 21.78 40.6145 20.46C40.6145 19.14 41.2945 18.2 42.6745 17.64C44.0345 17.1 45.9745 16.82 48.4945 16.82C49.7345 16.82 50.8545 16.9 51.8545 17.02C52.8145 17.16 53.6545 17.36 54.3345 17.64C54.9945 17.94 55.4945 18.32 55.8545 18.78C56.1945 19.26 56.3745 19.82 56.3745 20.46C56.3745 21.78 55.6945 22.72 54.3345 23.28C52.9545 23.84 51.0145 24.12 48.4945 24.12ZM51.8145 10.04H41.0145V6.6H55.9545V12.48H51.8145V10.04ZM39.8345 13.12H45.2145V11.2H49.3545V13.12H57.1345V16.16H39.8345V13.12ZM48.4945 21.16C49.6545 21.16 50.5745 21.1 51.2545 21.02C51.8945 20.94 52.2345 20.74 52.2345 20.46C52.2345 20.18 51.8945 20 51.2545 19.9C50.5745 19.82 49.6545 19.76 48.4945 19.76C47.3145 19.76 46.3945 19.82 45.7545 19.9C45.0745 20 44.7545 20.18 44.7545 20.46C44.7545 20.74 45.0745 20.94 45.7545 21.02C46.3945 21.1 47.3145 21.16 48.4945 21.16ZM66.6538 13.98C66.6538 14.88 66.5538 15.72 66.3938 16.48L71.1138 20.02L69.0538 23.08L64.8938 19.9C64.3338 20.66 63.6338 21.28 62.8138 21.84C61.9738 22.36 60.9738 22.78 59.8538 23.08L58.0737 20.06C59.5938 19.64 60.7138 18.94 61.4338 17.96C62.1538 17 62.5138 15.68 62.5138 13.96V6.56H66.6538V13.98ZM75.9338 23.32H71.7938V6.4H75.9338V23.32ZM78.413 23.44V19.6H82.513V23.44H78.413Z" fill="#0B0B0B"/>
</svg>
